<?xml version="1.0" encoding="UTF-8" standalone="no"?><!DOCTYPE svg PUBLIC "-//W3C//DTD SVG 1.1//EN" "http://www.w3.org/Graphics/SVG/1.1/DTD/svg11.dtd"><svg width="600" height="171.428571" viewBox="0 0 600 171.428571" version="1.1" xmlns="http://www.w3.org/2000/svg" xmlns:xlink="http://www.w3.org/1999/xlink" xml:space="preserve" xmlns:serif="http://www.serif.com/" style="fill-rule:evenodd;clip-rule:evenodd;stroke-linejoin:round;stroke-miterlimit:2;"><path d="M-101.737,-0l-24.559,-42.101c-0.272,-0.467 -0.272,-1.045 0,-1.512l25,-42.857c0.269,-0.461 0.762,-0.744 1.296,-0.744l49.138,-0l24.566,-42.113c0.269,-0.461 0.762,-0.744 1.296,-0.744l50,0c0.534,-0 1.027,0.283 1.296,0.744l24.566,42.113l48.277,-0l24.566,-42.113c0.269,-0.461 0.762,-0.744 1.296,-0.744l50,0c0.534,-0 1.027,0.283 1.296,0.744l24.566,42.113l48.277,-0l24.566,-42.113c0.269,-0.461 0.762,-0.744 1.296,-0.744l50,0c0.534,-0 1.027,0.283 1.296,0.744l24.566,42.113l48.277,-0l24.566,-42.113c0.269,-0.461 0.762,-0.744 1.296,-0.744l50,0c0.534,-0 1.027,0.283 1.296,0.744l24.566,42.113l48.277,-0l24.566,-42.113c0.269,-0.461 0.762,-0.744 1.296,-0.744l50,0c0.534,-0 1.027,0.283 1.296,0.744l25,42.857c0.272,0.467 0.272,1.045 0,1.512l-24.559,42.101l24.559,42.101c0.272,0.467 0.272,1.045 0,1.512l-24.559,42.101l24.559,42.101c0.272,0.467 0.272,1.045 0,1.512l-24.559,42.101l24.559,42.101c0.272,0.467 0.272,1.045 0,1.512l-24.559,42.101l24.559,42.101c0.272,0.467 0.272,1.045 0,1.512l-24.559,42.101l24.559,42.101c0.272,0.467 0.272,1.045 0,1.512l-24.559,42.101l24.559,42.101c0.272,0.467 0.272,1.045 -0,1.512l-24.559,42.101l24.559,42.101c0.272,0.467 0.272,1.045 -0,1.512l-25,42.857c-0.269,0.461 -0.762,0.744 -1.296,0.744l-49.138,0l-24.566,42.113c-0.269,0.461 -0.762,0.744 -1.296,0.744l-50,0c-0.534,0 -1.027,-0.283 -1.296,-0.744l-24.566,-42.113l-48.277,0l-24.566,42.113c-0.269,0.461 -0.762,0.744 -1.296,0.744l-50,0c-0.534,0 -1.027,-0.283 -1.296,-0.744l-24.566,-42.113l-48.277,0l-24.566,42.113c-0.269,0.461 -0.762,0.744 -1.296,0.744l-50,0c-0.534,0 -1.027,-0.283 -1.296,-0.744l-24.566,-42.113l-48.277,0l-24.566,42.113c-0.269,0.461 -0.762,0.744 -1.296,0.744l-50,0c-0.534,0 -1.027,-0.283 -1.296,-0.744l-24.566,-42.113l-48.277,0l-24.566,42.113c-0.269,0.461 -0.762,0.744 -1.296,0.744l-50,0c-0.534,0 -1.027,-0.283 -1.296,-0.744l-25,-42.857c-0.272,-0.467 -0.272,-1.045 0,-1.512l24.559,-42.101l-24.559,-42.101c-0.272,-0.467 -0.272,-1.045 0,-1.512l24.559,-42.101l-24.559,-42.101c-0.272,-0.467 -0.272,-1.045 0,-1.512l24.559,-42.101l-24.559,-42.101c-0.272,-0.467 -0.272,-1.045 0,-1.512l24.559,-42.101l-24.559,-42.101c-0.272,-0.467 -0.272,-1.045 -0,-1.512l24.559,-42.101l-24.559,-42.101c-0.272,-0.467 -0.272,-1.045 0,-1.512l24.559,-42.101l-24.559,-42.101c-0.272,-0.467 -0.272,-1.045 -0,-1.512l24.559,-42.101l-24.559,-42.101c-0.272,-0.467 -0.272,-1.045 0,-1.512l24.559,-42.101Zm50.875,-84.214l-48.277,0l-24.125,41.357l24.125,41.357l48.277,-0l24.125,-41.357l-24.125,-41.357Zm99.125,-1.5l-24.125,-41.357l-48.277,0l-24.125,41.357l24.125,41.357l48.277,-0l24.125,-41.357Zm50.875,1.5l-48.277,0l-24.125,41.357l24.125,41.357l48.277,-0l24.125,-41.357l-24.125,-41.357Zm99.125,-1.5l-24.125,-41.357l-48.277,0l-24.125,41.357l24.125,41.357l48.277,-0l24.125,-41.357Zm50.875,1.5l-48.277,0l-24.125,41.357l24.125,41.357l48.277,-0l24.125,-41.357l-24.125,-41.357Zm99.125,-1.5l-24.125,-41.357l-48.277,0l-24.125,41.357l24.125,41.357l48.277,-0l24.125,-41.357Zm50.875,1.5l-48.277,0l-24.125,41.357l24.125,41.357l48.277,-0l24.125,-41.357l-24.125,-41.357Zm99.125,-1.5l-24.125,-41.357l-48.277,0l-24.125,41.357l24.125,41.357l48.277,-0l24.125,-41.357Zm50.875,1.5l-48.277,0l-24.125,41.357l24.125,41.357l48.277,-0l24.125,-41.357l-24.125,-41.357Zm75,39.857l24.125,-41.357l-24.125,-41.357l-48.277,0l-24.125,41.357l24.125,41.357l48.277,-0Zm-0,85.714l24.125,-41.357l-24.125,-41.357l-48.277,0l-24.125,41.357l24.125,41.357l48.277,-0Zm-0,85.714l24.125,-41.357l-24.125,-41.357l-48.277,0l-24.125,41.357l24.125,41.357l48.277,-0Zm0,85.714l24.125,-41.357l-24.125,-41.357l-48.277,0l-24.125,41.357l24.125,41.357l48.277,-0Zm0,85.714l24.125,-41.357l-24.125,-41.357l-48.277,0l-24.125,41.357l24.125,41.357l48.277,-0Zm-0,85.714l24.125,-41.357l-24.125,-41.357l-48.277,0l-24.125,41.357l24.125,41.357l48.277,-0Zm-0,85.714l24.125,-41.357l-24.125,-41.357l-48.277,0l-24.125,41.357l24.125,41.357l48.277,-0Zm0,85.714l24.125,-41.357l-24.125,-41.357l-48.277,0l-24.125,41.357l24.125,41.357l48.277,-0Zm-48.277,85.714l48.277,-0l24.125,-41.357l-24.125,-41.357l-48.277,0l-24.125,41.357l24.125,41.357Zm-99.125,1.5l24.125,41.357l48.277,-0l24.125,-41.357l-24.125,-41.357l-48.277,0l-24.125,41.357Zm-50.875,-1.5l48.277,-0l24.125,-41.357l-24.125,-41.357l-48.277,0l-24.125,41.357l24.125,41.357Zm-99.125,1.5l24.125,41.357l48.277,-0l24.125,-41.357l-24.125,-41.357l-48.277,0l-24.125,41.357Zm-50.875,-1.5l48.277,-0l24.125,-41.357l-24.125,-41.357l-48.277,0l-24.125,41.357l24.125,41.357Zm-99.125,1.5l24.125,41.357l48.277,-0l24.125,-41.357l-24.125,-41.357l-48.277,0l-24.125,41.357Zm-50.875,-1.5l48.277,-0l24.125,-41.357l-24.125,-41.357l-48.277,0l-24.125,41.357l24.125,41.357Zm-99.125,1.5l24.125,41.357l48.277,-0l24.125,-41.357l-24.125,-41.357l-48.277,0l-24.125,41.357Zm-50.875,-1.5l48.277,-0l24.125,-41.357l-24.125,-41.357l-48.277,0l-24.125,41.357l24.125,41.357Zm-75,-39.857l-24.125,41.357l24.125,41.357l48.277,-0l24.125,-41.357l-24.125,-41.357l-48.277,0Zm0,-85.714l-24.125,41.357l24.125,41.357l48.277,-0l24.125,-41.357l-24.125,-41.357l-48.277,0Zm0,-85.714l-24.125,41.357l24.125,41.357l48.277,-0l24.125,-41.357l-24.125,-41.357l-48.277,0Zm0,-85.714l-24.125,41.357l24.125,41.357l48.277,-0l24.125,-41.357l-24.125,-41.357l-48.277,0Zm0,-85.714l-24.125,41.357l24.125,41.357l48.277,-0l24.125,-41.357l-24.125,-41.357l-48.277,0Zm-0,-85.714l-24.125,41.357l24.125,41.357l48.277,-0l24.125,-41.357l-24.125,-41.357l-48.277,0Zm0,-85.714l-24.125,41.357l24.125,41.357l48.277,-0l24.125,-41.357l-24.125,-41.357l-48.277,0Zm0,-85.714l-24.125,41.357l24.125,41.357l48.277,-0l24.125,-41.357l-24.125,-41.357l-48.277,0Zm75,-42.857l-24.125,41.357l24.125,41.357l48.277,-0l24.125,-41.357l-24.125,-41.357l-48.277,0Zm123.277,42.857l-48.277,0l-24.125,41.357l24.125,41.357l48.277,-0l24.125,-41.357l-24.125,-41.357Zm26.723,-42.857l-24.125,41.357l24.125,41.357l48.277,-0l24.125,-41.357l-24.125,-41.357l-48.277,0Zm123.277,42.857l-48.277,0l-24.125,41.357l24.125,41.357l48.277,-0l24.125,-41.357l-24.125,-41.357Zm26.723,-42.857l-24.125,41.357l24.125,41.357l48.277,-0l24.125,-41.357l-24.125,-41.357l-48.277,0Zm123.277,42.857l-48.277,0l-24.125,41.357l24.125,41.357l48.277,-0l24.125,-41.357l-24.125,-41.357Zm26.723,-42.857l-24.125,41.357l24.125,41.357l48.277,-0l24.125,-41.357l-24.125,-41.357l-48.277,0Zm123.277,42.857l-48.277,0l-24.125,41.357l24.125,41.357l48.277,-0l24.125,-41.357l-24.125,-41.357Zm24.125,127.071l-24.125,-41.357l-48.277,0l-24.125,41.357l24.125,41.357l48.277,-0l24.125,-41.357Zm-0,85.714l-24.125,-41.357l-48.277,0l-24.125,41.357l24.125,41.357l48.277,-0l24.125,-41.357Zm0,85.714l-24.125,-41.357l-48.277,0l-24.125,41.357l24.125,41.357l48.277,-0l24.125,-41.357Zm-0,85.714l-24.125,-41.357l-48.277,0l-24.125,41.357l24.125,41.357l48.277,-0l24.125,-41.357Zm-0,85.714l-24.125,-41.357l-48.277,0l-24.125,41.357l24.125,41.357l48.277,-0l24.125,-41.357Zm0,85.714l-24.125,-41.357l-48.277,0l-24.125,41.357l24.125,41.357l48.277,-0l24.125,-41.357Zm-147.402,-1.5l48.277,-0l24.125,-41.357l-24.125,-41.357l-48.277,0l-24.125,41.357l24.125,41.357Zm-26.723,42.857l24.125,-41.357l-24.125,-41.357l-48.277,0l-24.125,41.357l24.125,41.357l48.277,-0Zm-123.277,-42.857l48.277,-0l24.125,-41.357l-24.125,-41.357l-48.277,0l-24.125,41.357l24.125,41.357Zm-26.723,42.857l24.125,-41.357l-24.125,-41.357l-48.277,0l-24.125,41.357l24.125,41.357l48.277,-0Zm-123.277,-42.857l48.277,-0l24.125,-41.357l-24.125,-41.357l-48.277,0l-24.125,41.357l24.125,41.357Zm-26.723,42.857l24.125,-41.357l-24.125,-41.357l-48.277,0l-24.125,41.357l24.125,41.357l48.277,-0Zm-123.277,-42.857l48.277,-0l24.125,-41.357l-24.125,-41.357l-48.277,0l-24.125,41.357l24.125,41.357Zm-24.125,-127.071l24.125,41.357l48.277,-0l24.125,-41.357l-24.125,-41.357l-48.277,0l-24.125,41.357Zm0,-85.714l24.125,41.357l48.277,-0l24.125,-41.357l-24.125,-41.357l-48.277,0l-24.125,41.357Zm-0,-85.714l24.125,41.357l48.277,-0l24.125,-41.357l-24.125,-41.357l-48.277,0l-24.125,41.357Zm-0,-85.714l24.125,41.357l48.277,-0l24.125,-41.357l-24.125,-41.357l-48.277,0l-24.125,41.357Zm0,-85.714l24.125,41.357l48.277,-0l24.125,-41.357l-24.125,-41.357l-48.277,0l-24.125,41.357Zm147.402,1.5l-48.277,0l-24.125,41.357l24.125,41.357l48.277,-0l24.125,-41.357l-24.125,-41.357Zm26.723,-42.857l-24.125,41.357l24.125,41.357l48.277,-0l24.125,-41.357l-24.125,-41.357l-48.277,0Zm123.277,42.857l-48.277,0l-24.125,41.357l24.125,41.357l48.277,-0l24.125,-41.357l-24.125,-41.357Zm26.723,-42.857l-24.125,41.357l24.125,41.357l48.277,-0l24.125,-41.357l-24.125,-41.357l-48.277,0Zm123.277,42.857l-48.277,0l-24.125,41.357l24.125,41.357l48.277,-0l24.125,-41.357l-24.125,-41.357Zm26.723,-42.857l-24.125,41.357l24.125,41.357l48.277,-0l24.125,-41.357l-24.125,-41.357l-48.277,0Zm72.402,127.071l-24.125,-41.357l-48.277,0l-24.125,41.357l24.125,41.357l48.277,-0l24.125,-41.357Zm-0,85.714l-24.125,-41.357l-48.277,0l-24.125,41.357l24.125,41.357l48.277,-0l24.125,-41.357Zm0,85.714l-24.125,-41.357l-48.277,0l-24.125,41.357l24.125,41.357l48.277,-0l24.125,-41.357Zm-0,85.714l-24.125,-41.357l-48.277,0l-24.125,41.357l24.125,41.357l48.277,-0l24.125,-41.357Zm-99.125,84.214l24.125,-41.357l-24.125,-41.357l-48.277,0l-24.125,41.357l24.125,41.357l48.277,-0Zm-123.277,-42.857l48.277,-0l24.125,-41.357l-24.125,-41.357l-48.277,0l-24.125,41.357l24.125,41.357Zm-26.723,42.857l24.125,-41.357l-24.125,-41.357l-48.277,0l-24.125,41.357l24.125,41.357l48.277,-0Zm-123.277,-42.857l48.277,-0l24.125,-41.357l-24.125,-41.357l-48.277,0l-24.125,41.357l24.125,41.357Zm-26.723,42.857l24.125,-41.357l-24.125,-41.357l-48.277,0l-24.125,41.357l24.125,41.357l48.277,-0Zm-72.402,-127.071l24.125,41.357l48.277,-0l24.125,-41.357l-24.125,-41.357l-48.277,0l-24.125,41.357Zm0,-85.714l24.125,41.357l48.277,-0l24.125,-41.357l-24.125,-41.357l-48.277,0l-24.125,41.357Zm0,-85.714l24.125,41.357l48.277,-0l24.125,-41.357l-24.125,-41.357l-48.277,0l-24.125,41.357Zm99.125,-84.214l-24.125,41.357l24.125,41.357l48.277,-0l24.125,-41.357l-24.125,-41.357l-48.277,0Zm123.277,42.857l-48.277,0l-24.125,41.357l24.125,41.357l48.277,-0l24.125,-41.357l-24.125,-41.357Zm26.723,-42.857l-24.125,41.357l24.125,41.357l48.277,-0l24.125,-41.357l-24.125,-41.357l-48.277,0Zm123.277,42.857l-48.277,0l-24.125,41.357l24.125,41.357l48.277,-0l24.125,-41.357l-24.125,-41.357Zm24.125,127.071l-24.125,-41.357l-48.277,0l-24.125,41.357l24.125,41.357l48.277,-0l24.125,-41.357Zm-0,85.714l-24.125,-41.357l-48.277,0l-24.125,41.357l24.125,41.357l48.277,-0l24.125,-41.357Zm-147.402,-1.5l48.277,-0l24.125,-41.357l-24.125,-41.357l-48.277,0l-24.125,41.357l24.125,41.357Zm-26.723,42.857l24.125,-41.357l-24.125,-41.357l-48.277,0l-24.125,41.357l24.125,41.357l48.277,-0Zm-123.277,-42.857l48.277,-0l24.125,-41.357l-24.125,-41.357l-48.277,0l-24.125,41.357l24.125,41.357Zm-24.125,-127.071l24.125,41.357l48.277,-0l24.125,-41.357l-24.125,-41.357l-48.277,0l-24.125,41.357Zm147.402,1.5l-48.277,0l-24.125,41.357l24.125,41.357l48.277,-0l24.125,-41.357l-24.125,-41.357Zm26.723,-42.857l-24.125,41.357l24.125,41.357l48.277,-0l24.125,-41.357l-24.125,-41.357l-48.277,0Zm123.277,42.857l-48.277,0l-24.125,41.357l24.125,41.357l48.277,-0l24.125,-41.357l-24.125,-41.357Z" style="fill:#141414;"/></svg>
